# xmcd
#
# Track frame offsets:
#	150
#	19139
#	38145
#	63094
#	80956
#	98458
#	113345
#	132400
#	150467
#	166243
#	183301
#	198934
#	220632
#	239821
#	256986
#	272074
#	292520
#	312743
#	330174
#
# Disc length: 4644 seconds
#
# Revision: 1
# Processed by: cddbd v1.5.2PL0 Copyright (c) Steve Scherf et al.
# Submitted via: EasyCDDAExtractor 12.0.0.1
#
DISCID=fa122213
DTITLE=Various Artist - Top 50 [CD3)
DYEAR=2009
DGENRE=80's
TTITLE0=Simple Minds - Don't You 
TTITLE1=Kim Wilde - You Keep Me Hangin' On
TTITLE2=Modern Talking - You're My Heart, You're My Soul (12'' Mix)
TTITLE3=Rockwell - Somebody's Watching Me
TTITLE4=Debarge - Rhythm Of The Night
TTITLE5=Moon Ray - Comanchero
TTITLE6=Debut De Soiree - Nuit De Folie
TTITLE7=Bros - When Will I Be Famous
TTITLE8=Scotch - Take Me Up
TTITLE9=Paco - Amor De Mis Amores
TTITLE10=Bill Baxter - Embrasse-Moi Idiot
TTITLE11=Gazebo - I Like Chopin
TTITLE12=Felix Gray and Didier Barbelivien - A Toutes Les Filles
TTITLE13=Caroline Legrand - J'aurais Voulu Te Dire
TTITLE14=Musical Youth - Pass The Dutchie
TTITLE15=Gerard Blanc - Une Autre Histoire
TTITLE16=Haddaway - What Is Love
TTITLE17=Yazz and The Plastic Population - The Only Way Is Up
TTITLE18=P.Lion - Dream
EXTD=
EXTT0=
EXTT1=
EXTT2=
EXTT3=
EXTT4=
EXTT5=
EXTT6=
EXTT7=
EXTT8=
EXTT9=
EXTT10=
EXTT11=
EXTT12=
EXTT13=
EXTT14=
EXTT15=
EXTT16=
EXTT17=
EXTT18=
PLAYORDER=
